<?xml version="1.0" standalone="no"?>
<!DOCTYPE svg PUBLIC "-//W3C//DTD SVG 20010904//EN"
 "http://www.w3.org/TR/2001/REC-SVG-20010904/DTD/svg10.dtd">
<svg version="1.0" xmlns="http://www.w3.org/2000/svg"
 width="817.000000pt" height="817.000000pt" viewBox="0 0 817.000000 817.000000"
 preserveAspectRatio="xMidYMid meet">
<metadata>
Created by potrace 1.11, written by Peter Selinger 2001-2013
</metadata>
<g transform="translate(0.000000,817.000000) scale(0.100000,-0.100000)"
fill="#000000" stroke="none">
<path d="M3931 6665 c-22 -46 -42 -93 -46 -104 -6 -19 -52 -41 -84 -41 -9 0
-56 23 -105 50 -49 28 -94 50 -100 50 -19 0 -146 -99 -146 -114 0 -8 9 -58 20
-112 l20 -97 -22 -34 c-13 -18 -27 -33 -33 -33 -50 -2 -207 -29 -214 -36 -5
-5 -21 -46 -35 -91 l-27 -82 -57 25 c-31 14 -76 33 -99 42 l-42 16 -95 -88
-95 -87 -93 18 -92 18 -51 112 -50 112 -118 1 -118 0 -53 -113 -53 -114 -89
-21 -89 -21 -70 67 c-38 37 -81 78 -96 90 l-25 22 -100 -44 -99 -44 -6 -108
c-4 -60 -7 -117 -8 -126 0 -10 -36 -41 -82 -72 l-80 -54 -122 46 -122 45 -72
-79 c-40 -43 -73 -84 -73 -90 0 -7 11 -36 24 -65 14 -30 34 -77 45 -105 l20
-51 -54 -81 -54 -80 -118 -6 c-65 -4 -124 -10 -132 -14 -7 -4 -22 -28 -31 -52
-10 -25 -27 -69 -39 -97 l-21 -53 89 -99 89 -99 -22 -87 -21 -87 -115 -53
-115 -53 -3 -114 -3 -113 108 -49 c59 -27 113 -53 119 -60 9 -9 44 -148 44
-175 0 -5 -38 -51 -85 -102 -47 -51 -85 -96 -85 -99 0 -3 18 -48 39 -100 33
-79 43 -95 63 -97 13 -1 71 -5 129 -8 l106 -7 52 -74 c28 -40 51 -79 51 -85 0
-7 -18 -63 -41 -125 l-41 -114 69 -75 c37 -40 75 -74 84 -75 9 0 65 18 124 40
59 22 111 40 115 40 4 0 41 -22 82 -49 l75 -48 6 -129 c5 -84 11 -130 19 -135
7 -4 54 -24 106 -45 l93 -37 88 87 c49 47 95 86 102 86 8 0 50 -7 95 -16 l81
-16 56 -119 55 -119 89 0 c48 0 98 3 111 6 17 5 36 33 72 103 26 53 55 104 62
114 12 17 112 46 160 47 9 0 58 -38 109 -85 50 -47 98 -85 105 -85 7 0 54 18
105 40 51 22 93 39 94 37 1 -1 14 -36 29 -79 l27 -76 107 -13 c98 -11 109 -15
135 -42 32 -35 32 -30 7 -152 -11 -53 -20 -100 -20 -104 0 -8 144 -111 154
-111 4 0 47 23 98 51 83 47 94 51 127 43 33 -8 40 -17 89 -111 l53 -103 43 0
c24 0 64 -3 89 -6 l46 -7 53 109 c50 103 55 110 90 118 33 8 44 6 85 -18 27
-15 71 -39 100 -53 l52 -27 38 27 c21 14 53 39 72 55 l34 28 -16 91 c-22 119
-21 137 6 169 21 24 36 29 123 40 54 7 104 13 110 14 5 0 21 36 33 80 13 44
27 80 31 80 4 0 52 -20 107 -44 l100 -43 97 88 c53 49 104 89 114 89 32 -1
144 -28 153 -37 5 -5 34 -56 63 -113 30 -57 62 -107 72 -111 33 -13 201 -10
211 4 5 6 31 60 57 118 l48 107 82 16 c44 9 86 16 93 16 7 0 53 -39 102 -86
l91 -86 42 16 c24 9 71 28 105 43 l61 25 7 130 8 129 73 50 c40 27 77 49 82
49 5 0 57 -18 116 -40 58 -22 114 -40 124 -40 9 1 48 34 85 75 l68 74 -40 113
c-23 62 -41 118 -41 125 0 7 23 47 51 87 l52 74 91 6 c50 4 108 7 129 9 l39 2
39 99 39 99 -22 26 c-12 14 -52 56 -87 93 l-65 68 18 87 c10 49 23 93 29 99 7
7 55 31 107 55 52 23 101 47 108 52 9 7 12 39 10 119 l-3 109 -115 53 -115 53
-22 88 -23 88 89 98 89 99 -36 92 c-19 51 -39 98 -44 104 -4 6 -61 14 -130 18
-68 4 -128 12 -135 17 -6 6 -32 43 -57 83 l-45 72 46 112 46 111 -73 81 c-40
44 -76 80 -80 80 -7 0 -164 -58 -217 -80 -17 -7 -36 2 -105 48 l-83 57 -5 124
-5 123 -99 44 c-81 36 -102 41 -115 31 -9 -6 -51 -45 -94 -87 -44 -41 -84 -75
-91 -74 -7 1 -47 9 -90 18 l-78 18 -55 114 -55 114 -118 0 -118 0 -23 -57
c-12 -32 -35 -83 -50 -114 l-28 -56 -91 -17 -92 -17 -66 60 c-37 32 -78 71
-91 85 -14 14 -30 26 -37 26 -7 0 -56 -19 -108 -42 l-96 -41 0 -94 0 -93 -80
0 c-116 0 -116 12 -7 114 l87 81 -26 80 c-14 44 -28 83 -32 87 -4 4 -56 14
-116 23 -109 15 -118 19 -146 66 -7 12 -3 51 12 124 l21 107 -24 19 c-13 10
-48 35 -76 55 l-53 36 -92 -51 c-50 -28 -99 -51 -109 -51 -50 0 -69 19 -115
118 l-46 100 -45 6 c-25 3 -68 6 -94 6 l-49 0 -39 -85z m234 -80 l50 -100 58
-17 59 -18 91 51 c99 54 99 54 160 5 l28 -22 -21 -88 c-11 -48 -20 -95 -20
-104 0 -10 17 -40 38 -68 l37 -51 107 -13 108 -13 16 -52 17 -53 -63 -59 c-99
-90 -100 -91 -100 -118 l0 -25 -672 2 -673 3 -3 30 c-2 23 -22 47 -78 100
l-75 70 16 53 c9 28 18 52 21 52 43 0 202 25 212 33 8 6 27 31 44 55 l30 43
-20 102 -20 102 37 32 c20 18 42 33 50 33 7 0 54 -23 103 -51 l90 -50 63 22
62 22 46 99 46 99 53 -3 53 -3 50 -100z m-1763 -451 l45 -6 49 -109 c35 -80
53 -111 68 -114 29 -7 209 -35 222 -35 7 0 49 36 95 80 46 43 90 79 98 80 7 0
40 -12 72 -26 l59 -27 0 -68 0 -68 -152 -3 -153 -3 0 -280 0 -280 47 -3 47 -3
42 60 43 61 302 0 302 0 -2 -30 c-1 -22 17 -55 64 -125 65 -94 65 -94 108 -95
l42 0 0 -103 c0 -99 -1 -105 -26 -128 -15 -13 -35 -37 -45 -54 l-18 -29 -12
32 c-6 17 -16 32 -22 32 -12 0 -169 -50 -175 -56 -2 -1 -1 -12 3 -24 7 -22 21
-22 69 -4 25 9 19 -14 -13 -55 -24 -30 -27 -40 -19 -61 l10 -25 31 37 c27 31
35 35 50 27 10 -6 27 -9 38 -6 16 4 19 0 19 -28 l0 -33 -65 -7 c-61 -6 -65 -8
-65 -32 0 -25 1 -25 52 -19 l53 7 -23 -23 c-27 -30 -27 -35 1 -58 l22 -19 -42
-7 c-37 -6 -43 -10 -43 -30 0 -28 9 -29 123 -10 88 14 106 6 61 -30 -23 -19
-43 -24 -104 -26 -73 -3 -75 -4 -75 -28 0 -22 5 -26 42 -30 l41 -5 -18 -23
c-11 -13 -27 -21 -42 -20 -17 2 -24 -3 -26 -19 -2 -16 2 -23 12 -23 13 0 15
-6 10 -27 -11 -45 -22 -71 -33 -78 -16 -9 -13 -25 4 -25 9 0 15 -10 15 -26 0
-20 -4 -24 -19 -19 -23 7 -41 -32 -21 -45 18 -11 -6 -77 -30 -85 -10 -3 -20
-15 -23 -26 -5 -20 -2 -21 77 -18 78 3 85 1 116 -24 18 -16 50 -37 71 -48 l39
-19 0 -90 0 -89 -37 -3 c-34 -3 -41 -10 -104 -103 -38 -55 -68 -106 -68 -114
-1 -8 17 -62 40 -119 l41 -105 -53 -53 c-29 -30 -59 -54 -66 -54 -7 0 -61 18
-122 41 l-109 41 -101 -68 -101 -67 -1 -91 c0 -50 -3 -108 -7 -129 -7 -36 -11
-40 -74 -66 l-66 -28 -97 89 c-64 59 -102 87 -113 84 -9 -2 -60 -14 -113 -26
l-95 -22 -57 -114 -57 -114 -73 0 -73 0 -52 114 -53 113 -121 27 -121 27 -87
-86 c-48 -47 -91 -85 -96 -85 -11 0 -122 45 -129 52 -3 3 -9 61 -13 129 l-7
124 -80 53 c-133 88 -114 85 -245 37 l-115 -43 -47 46 c-27 26 -48 52 -48 59
0 7 19 61 41 122 l42 109 -74 106 -74 106 -46 0 c-25 0 -81 3 -124 7 l-77 6
-19 44 c-36 84 -37 81 51 175 44 47 80 95 80 105 0 10 -10 66 -21 124 l-21
106 -114 53 -114 53 0 76 0 76 111 49 c73 33 114 57 120 70 4 12 18 65 29 118
l22 98 -87 96 c-94 104 -92 97 -51 184 l21 45 125 10 125 10 67 100 c78 115
78 112 23 236 -19 44 -35 86 -35 92 0 7 22 34 49 61 l49 48 109 -41 c60 -22
113 -41 118 -41 6 1 55 31 110 69 114 77 112 73 114 219 l1 93 66 30 66 30 93
-86 94 -86 98 21 c137 29 143 31 143 40 0 5 23 56 51 114 58 118 52 115 161
100z m3488 -105 c30 -61 62 -114 70 -119 8 -4 62 -17 119 -30 l104 -22 51 49
c28 26 70 65 92 86 l41 38 65 -29 65 -29 7 -118 c4 -65 10 -123 13 -128 7 -11
199 -137 210 -137 4 0 57 19 116 42 l108 41 50 -49 c27 -26 49 -53 49 -59 0
-6 -18 -54 -40 -105 -22 -51 -40 -101 -40 -109 0 -9 31 -61 68 -116 l67 -100
124 -9 123 -8 30 -65 29 -66 -28 -33 c-15 -18 -55 -63 -87 -99 l-60 -66 28
-116 29 -115 113 -54 114 -53 0 -74 0 -74 -114 -53 -113 -52 -26 -122 -25
-121 57 -60 c31 -33 69 -75 85 -92 l29 -32 -27 -64 -27 -64 -76 -7 c-42 -3
-97 -6 -123 -6 l-46 0 -72 -105 -73 -105 41 -114 c22 -63 40 -118 40 -123 0
-5 -21 -30 -47 -55 l-48 -47 -115 43 -115 43 -35 -19 c-19 -10 -66 -40 -105
-66 l-70 -47 -6 -115 c-4 -63 -7 -120 -8 -127 0 -6 -33 -24 -71 -39 l-70 -27
-90 87 c-63 62 -94 86 -107 82 -10 -2 -63 -14 -118 -26 -55 -12 -101 -24 -103
-28 -2 -4 -27 -54 -55 -112 l-52 -105 -71 -3 -72 -3 -50 98 c-75 145 -48 127
-269 178 -18 4 -43 -14 -119 -84 l-97 -89 -61 26 c-34 14 -67 32 -73 41 -9 10
-13 52 -13 125 0 61 -4 116 -8 122 -4 6 -49 39 -100 73 l-94 63 -111 -41 c-62
-23 -117 -41 -122 -41 -6 0 -35 24 -64 54 l-53 54 41 106 c22 59 41 111 41
117 0 5 -32 57 -70 114 -61 90 -74 105 -98 105 -72 0 -72 1 -72 124 0 62 3
115 6 119 3 3 29 -9 57 -27 64 -40 108 -56 158 -56 22 0 39 -3 39 -7 0 -3 -12
-21 -26 -40 -27 -36 -26 -73 3 -73 44 0 193 24 193 30 0 22 -14 40 -31 40 -10
0 -25 13 -34 29 -14 28 -14 30 5 36 18 6 20 15 20 116 0 119 1 117 -60 99 -29
-8 -37 -7 -56 11 -16 15 -23 17 -26 7 -6 -18 -58 9 -58 31 0 25 38 81 54 81 8
0 16 10 18 22 2 14 11 24 23 26 69 10 65 3 65 111 0 109 -1 111 -67 111 -25 0
-43 7 -59 25 -21 22 -31 25 -99 25 -73 0 -75 -1 -75 -25 0 -24 2 -25 64 -25
36 0 67 -4 70 -9 9 -14 -71 -61 -104 -61 -25 0 -30 -4 -30 -24 0 -13 4 -26 10
-28 5 -1 -1 -16 -15 -33 -21 -25 -26 -28 -35 -15 -16 25 -13 310 5 360 19 55
19 137 0 194 -12 34 -15 80 -13 183 l3 138 55 3 55 3 68 100 c54 79 68 105 63
125 l-6 24 113 0 c63 0 195 -3 295 -7 l182 -6 32 -48 c31 -46 35 -48 79 -49
l46 0 5 273 c3 149 4 275 1 280 -2 4 -65 7 -139 7 l-134 0 0 69 0 68 59 27
c32 14 64 26 71 26 7 0 50 -36 96 -80 46 -44 89 -80 96 -80 15 0 193 28 224
35 16 3 33 32 69 114 52 122 44 115 155 119 l46 2 54 -111z m-2639 -86 c38
-36 69 -75 69 -85 0 -16 -9 -18 -75 -18 l-75 0 0 85 c0 47 3 85 6 85 3 0 37
-30 75 -67z m549 -642 c0 -89 -5 -101 -41 -101 -13 0 -109 140 -109 160 0 27
9 30 82 30 l68 0 0 -89z m678 66 c4 -18 -66 -135 -93 -157 -8 -7 -28 -9 -49
-4 l-36 6 0 90 0 89 87 -3 c75 -3 88 -6 91 -21z m-321 -461 c74 -37 113 -103
113 -190 -1 -87 -49 -161 -157 -238 -24 -17 -43 -34 -43 -38 0 -8 248 -284
258 -287 4 -1 29 30 57 68 60 86 103 125 151 138 47 13 54 8 54 -39 0 -35 -4
-41 -33 -54 -43 -17 -83 -66 -120 -144 -24 -52 -27 -65 -16 -78 24 -29 114
-74 162 -80 l47 -7 0 -42 c0 -36 -4 -44 -22 -49 -74 -19 -181 8 -243 63 -20
17 -40 31 -45 31 -5 0 -35 -15 -67 -34 -86 -51 -167 -69 -293 -64 -115 4 -180
25 -233 76 -93 87 -101 255 -18 360 21 26 68 68 104 92 37 25 67 47 67 50 0 3
-19 30 -41 60 -60 79 -89 146 -89 205 1 146 121 240 292 230 45 -2 82 -12 115
-29z m-493 -102 c12 -48 -14 -44 -29 4 -4 16 -2 22 8 22 8 0 18 -12 21 -26z
m66 -251 l21 -36 -23 15 c-13 8 -29 18 -36 22 -10 6 -10 11 -1 22 15 19 14 19
39 -23z m-110 -578 c10 -13 9 -15 -8 -15 -15 0 -20 5 -16 15 4 8 7 15 9 15 1
0 8 -7 15 -15z m1004 -220 c4 -10 -1 -15 -16 -15 -17 0 -18 2 -8 15 7 8 14 15
15 15 2 0 5 -7 9 -15z m-827 -440 l2 -260 -51 -40 c-28 -22 -53 -44 -54 -50
-2 -5 9 -19 24 -30 25 -19 45 -20 320 -23 283 -3 296 -2 338 18 24 12 44 25
44 30 0 4 -27 31 -60 60 l-60 52 2 251 3 251 31 3 c29 2 35 -4 86 -80 l55 -82
-43 -110 c-24 -61 -44 -115 -44 -120 0 -6 36 -46 80 -90 l80 -79 37 11 c21 6
77 25 126 43 48 18 91 30 95 26 4 -5 -10 -23 -30 -41 -37 -31 -38 -34 -38
-103 l0 -70 77 -72 76 -71 -16 -53 -17 -53 -107 -12 c-59 -7 -108 -13 -108
-14 -1 -1 -18 -27 -38 -57 l-37 -56 21 -103 c11 -56 19 -104 17 -105 -1 -1
-20 -14 -40 -29 -20 -15 -41 -27 -46 -27 -5 0 -51 23 -101 51 -88 48 -94 50
-129 38 -78 -25 -87 -34 -133 -133 l-44 -96 -47 0 c-26 0 -53 6 -61 14 -7 8
-31 52 -52 100 l-38 85 -62 21 -61 20 -90 -50 c-49 -27 -92 -50 -96 -50 -4 0
-26 12 -48 28 -46 30 -46 30 -19 177 l12 71 -38 52 c-42 56 -34 52 -185 70
l-65 7 -17 50 -17 50 79 79 80 79 0 60 c0 57 -3 64 -37 99 -20 21 -34 41 -30
44 4 4 46 -8 94 -26 49 -18 105 -37 126 -43 l38 -11 80 83 c63 67 78 89 73
105 -4 12 -22 59 -40 105 -19 46 -34 91 -34 100 0 9 23 51 51 94 82 126 84
121 86 -188z m-473 -321 c3 -9 6 -31 6 -49 0 -29 -10 -43 -77 -104 -43 -38
-79 -69 -81 -67 -1 2 0 56 4 119 l7 116 36 24 36 24 32 -24 c17 -13 34 -31 37
-39z m1591 36 l32 -20 6 -122 c3 -67 5 -123 4 -124 -1 -1 -39 33 -85 76 -97
93 -105 121 -50 177 37 38 49 40 93 13z"/>
<path d="M4002 6363 l3 -78 55 0 c44 0 55 3 58 18 3 14 -4 17 -37 17 -23 0
-41 5 -41 10 0 6 14 10 30 10 23 0 30 4 30 20 0 16 -7 20 -30 20 -16 0 -30 5
-30 10 0 6 18 10 40 10 33 0 40 3 40 20 0 18 -7 20 -60 20 l-61 0 3 -77z"/>
<path d="M3883 6410 c-40 -16 -56 -77 -30 -111 31 -41 80 -46 119 -11 27 23
11 34 -38 26 -36 -5 -45 -3 -50 11 -10 24 8 49 37 54 28 4 43 22 26 33 -15 10
-36 9 -64 -2z"/>
<path d="M4248 6388 c-30 -10 -35 -27 -17 -45 9 -9 9 -19 -1 -42 -13 -32 -8
-61 10 -61 11 0 48 78 57 121 6 31 -10 40 -49 27z"/>
<path d="M3760 6360 c-13 -8 -12 -13 4 -40 l18 -32 -56 7 c-36 5 -56 4 -56 -3
0 -12 68 -116 78 -119 4 -2 13 1 21 6 11 7 10 14 -8 40 -25 34 -21 36 44 21
22 -5 44 -5 49 0 6 6 -67 131 -77 130 -1 0 -9 -5 -17 -10z"/>
<path d="M4338 6339 c-32 -18 -41 -48 -23 -75 15 -24 15 -24 -4 -12 -11 7 -23
9 -27 6 -11 -12 4 -38 30 -50 33 -14 70 9 94 58 17 36 17 36 -11 60 -31 27
-35 28 -59 13z m34 -44 c0 -5 -5 -11 -11 -13 -6 -2 -11 4 -11 13 0 9 5 15 11
13 6 -2 11 -8 11 -13z"/>
<path d="M3617 6246 c-3 -8 18 -36 49 -67 45 -44 56 -51 64 -39 15 23 13 25
-42 74 -57 50 -63 53 -71 32z"/>
<path d="M4434 6226 c5 -20 -1 -30 -26 -50 -29 -23 -31 -27 -18 -40 13 -14 22
-10 73 35 64 57 64 79 0 79 -32 0 -35 -2 -29 -24z"/>
<path d="M3560 6168 c-24 -26 -23 -66 3 -82 13 -8 25 -7 49 7 33 19 54 13 25
-7 -20 -15 -23 -46 -4 -46 20 0 57 44 57 67 0 24 -24 53 -44 53 -7 0 -21 -7
-32 -15 -27 -20 -40 -19 -21 3 10 10 17 24 17 30 0 19 -28 14 -50 -10z"/>
<path d="M4486 6157 c-55 -32 -65 -50 -46 -85 21 -37 49 -38 98 -6 48 31 55
61 22 94 -25 25 -26 24 -74 -3z m54 -37 c0 -5 -2 -10 -4 -10 -3 0 -8 5 -11 10
-3 6 -1 10 4 10 6 0 11 -4 11 -10z m-50 -30 c0 -5 -2 -10 -4 -10 -3 0 -8 5
-11 10 -3 6 -1 10 4 10 6 0 11 -4 11 -10z"/>
<path d="M2304 5740 c4 -27 4 -50 0 -50 -3 0 -29 20 -57 45 -74 64 -78 62 -71
-42 7 -108 8 -113 34 -113 17 0 20 6 20 50 0 28 3 50 6 50 3 0 29 -20 57 -45
29 -25 55 -45 59 -45 10 0 10 56 2 139 -6 57 -9 61 -32 61 -24 0 -24 -2 -18
-50z"/>
<path d="M2439 5751 c-31 -32 -39 -84 -18 -123 22 -42 107 -57 147 -25 6 5 12
29 12 53 0 37 -3 44 -19 44 -11 0 -26 3 -35 6 -12 5 -16 0 -16 -19 0 -14 6
-27 13 -30 9 -3 9 -7 1 -17 -18 -18 -53 -2 -60 27 -11 41 7 58 59 58 58 0 78
16 46 39 -38 27 -96 21 -130 -13z"/>
<path d="M2057 5753 c-3 -5 3 -47 13 -94 11 -46 20 -87 20 -91 0 -10 22 -10
36 0 9 5 7 31 -5 97 -14 78 -19 90 -38 93 -11 2 -23 -1 -26 -5z"/>
<path d="M1886 5704 c-22 -8 -41 -16 -43 -18 -4 -4 54 -176 62 -184 2 -2 13 1
24 7 17 10 19 15 10 38 -18 49 -3 57 40 23 28 -23 45 -30 60 -25 28 9 26 19
-8 47 -22 19 -27 30 -24 55 11 69 -33 89 -121 57z m79 -34 c10 -16 -43 -36
-57 -22 -9 9 -5 14 13 21 32 13 37 13 44 1z"/>
<path d="M1734 5639 c-3 -6 6 -38 21 -70 24 -49 26 -61 15 -74 -23 -28 -52
-13 -81 40 -28 51 -55 68 -65 42 -6 -17 29 -92 59 -124 46 -51 147 -12 147 57
0 17 -14 55 -31 85 -30 53 -50 67 -65 44z"/>
<path d="M1482 5478 c-50 -40 -60 -53 -51 -64 15 -18 28 -18 50 2 15 14 20 10
64 -45 41 -52 50 -59 64 -49 9 7 18 14 20 15 2 2 -17 30 -43 63 l-48 60 22 18
c14 11 19 23 15 35 -10 26 -24 21 -93 -35z"/>
<path d="M1348 5344 c-90 -48 -57 -184 43 -184 46 0 98 41 101 80 4 38 -32 39
-54 0 -29 -51 -88 -36 -88 22 0 21 7 32 25 40 17 8 25 18 23 32 -4 26 -17 28
-50 10z"/>
<path d="M3428 5279 c-17 -9 -17 -11 -1 -36 16 -24 16 -26 -3 -42 -11 -9 -38
-30 -60 -48 -36 -30 -38 -33 -22 -49 15 -16 20 -14 76 29 l60 45 20 -27 c18
-24 22 -25 36 -10 15 14 13 21 -31 82 -27 37 -50 67 -53 67 -3 -1 -13 -5 -22
-11z"/>
<path d="M1172 5128 c-6 -6 -12 -17 -12 -23 0 -9 93 -142 114 -163 12 -12 35
22 30 43 -7 28 21 75 45 75 9 0 22 9 29 20 15 24 14 25 -78 40 -36 6 -76 13
-90 16 -14 2 -31 -1 -38 -8z m99 -63 c-1 -15 -24 -12 -29 3 -3 9 2 13 12 10
10 -1 17 -7 17 -13z"/>
<path d="M3498 5053 l-87 -45 32 -64 c31 -64 40 -71 66 -55 12 8 10 15 -7 46
-12 20 -22 40 -22 46 0 19 27 8 38 -16 12 -26 20 -29 46 -19 14 5 14 9 1 34
-17 34 -19 50 -5 50 5 0 19 -18 30 -41 15 -28 26 -39 36 -35 9 3 18 6 20 6 11
0 0 30 -29 82 l-33 56 -86 -45z"/>
<path d="M1742 5053 c3 -35 7 -40 66 -71 l62 -33 0 -554 0 -553 -65 -37 c-60
-33 -65 -38 -65 -70 l0 -35 590 0 590 0 0 140 0 140 -31 0 c-22 0 -46 -11 -75
-35 l-42 -35 -331 0 -331 0 0 215 0 215 158 0 158 0 42 -31 c28 -20 50 -29 69
-27 l28 3 3 158 3 157 -34 0 c-20 0 -47 -10 -67 -25 -33 -24 -39 -25 -197 -25
l-163 0 0 165 0 165 286 0 286 0 48 -35 c30 -22 59 -35 79 -35 l31 0 0 140 0
140 -551 0 -550 0 3 -37z"/>
<path d="M1086 4972 c-11 -19 -45 -116 -41 -120 8 -8 160 -72 171 -72 7 0 14
9 17 20 4 15 -2 24 -26 36 -18 9 -33 18 -35 19 -1 1 3 15 10 29 10 23 9 29 -3
37 -23 14 -29 11 -40 -21 -6 -16 -14 -30 -18 -30 -17 0 -18 14 -5 47 9 19 13
42 10 49 -6 15 -32 19 -40 6z"/>
<path d="M1009 4758 c-14 -25 -6 -31 67 -47 61 -14 69 -21 59 -58 -6 -27 -7
-27 -117 -7 -36 6 -38 5 -38 -18 0 -21 7 -26 51 -36 91 -21 122 -15 144 29 36
69 4 119 -93 142 -60 14 -63 14 -73 -5z"/>
<path d="M960 4505 c0 -23 3 -25 50 -25 28 0 50 -4 50 -8 0 -5 -22 -28 -50
-51 -27 -23 -50 -48 -50 -55 0 -9 27 -15 92 -19 51 -3 93 -5 94 -4 1 1 5 12 8
25 7 21 5 22 -43 22 -28 0 -51 4 -51 9 0 6 23 29 50 52 28 23 50 48 50 54 0 8
-27 14 -77 19 -121 10 -123 9 -123 -19z"/>
<path d="M1053 4253 c-65 -37 -83 -51 -83 -69 0 -25 2 -26 105 -49 39 -8 78
-18 88 -21 13 -4 17 0 17 20 0 16 -6 26 -14 26 -8 0 -17 7 -20 16 -10 25 -7
74 4 74 6 0 10 11 10 25 0 14 -6 25 -12 25 -7 0 -50 -21 -95 -47z m34 -69 c-2
-2 -12 -1 -22 2 -17 7 -17 8 1 21 17 12 19 12 22 -2 2 -9 2 -19 -1 -21z"/>
<path d="M1095 4048 c-44 -16 -84 -33 -89 -38 -5 -6 16 -20 52 -36 l61 -26
-30 -48 c-29 -47 -36 -70 -22 -70 15 0 168 52 176 60 5 4 6 17 3 28 -7 20 -9
20 -48 6 -52 -18 -51 -19 -33 16 15 29 15 31 -10 42 -34 16 -32 23 15 37 34
10 38 14 31 33 -4 12 -12 23 -17 24 -5 1 -45 -11 -89 -28z"/>
<path d="M3440 3810 c-17 -34 -28 -65 -25 -70 13 -21 35 -8 55 30 11 22 22 40
24 40 2 0 34 -16 70 -35 65 -35 65 -36 76 -14 7 11 10 22 8 23 -17 13 -158 86
-167 86 -6 0 -24 -27 -41 -60z"/>
<path d="M1314 3735 c-4 -15 -17 -30 -30 -35 -28 -11 -30 -22 -9 -43 16 -16
10 -28 -10 -21 -25 10 -55 -15 -55 -45 0 -52 66 -83 92 -42 9 14 19 18 39 14
19 -4 33 1 48 16 29 29 26 57 -9 93 -16 16 -30 35 -30 41 0 7 -7 20 -15 31
-13 18 -14 17 -21 -9z m43 -119 c-4 -9 -11 -16 -17 -16 -11 0 -14 33 -3 44 11
10 26 -11 20 -28z"/>
<path d="M3272 3570 c-43 -50 -49 -80 -18 -80 9 0 25 14 38 30 22 30 48 40 48
18 0 -6 -10 -22 -22 -35 -21 -22 -21 -24 -4 -41 16 -16 19 -16 41 12 13 16 28
26 34 22 8 -5 1 -20 -19 -47 -31 -38 -32 -59 -6 -59 19 0 110 100 100 110 -60
54 -138 120 -143 120 -3 0 -26 -23 -49 -50z"/>
<path d="M3172 3468 c-17 -17 -15 -26 14 -61 15 -17 22 -33 17 -34 -5 -2 -37
1 -72 5 -49 7 -64 6 -68 -4 -6 -15 96 -153 113 -154 6 0 17 6 23 13 8 10 3 24
-21 56 l-31 43 29 -5 c76 -15 123 -17 129 -7 5 9 -97 151 -114 158 -4 1 -12
-3 -19 -10z"/>
<path d="M1486 3439 c-32 -38 -32 -43 0 -64 24 -16 28 -16 43 -1 14 15 14 18
1 26 -12 8 -12 10 4 16 13 5 23 1 32 -11 19 -26 17 -42 -6 -65 -32 -32 -49
-27 -83 23 -15 22 -47 13 -47 -13 0 -24 46 -68 80 -75 52 -11 120 41 120 93 0
31 -26 79 -49 92 -35 18 -68 11 -95 -21z"/>
<path d="M1658 3298 c-61 -107 -61 -106 -38 -118 17 -9 23 -5 45 31 15 22 29
39 31 36 3 -2 13 -33 23 -68 9 -34 22 -64 28 -66 5 -2 31 33 57 78 43 73 46
83 32 97 -19 19 -38 6 -56 -38 -7 -17 -15 -30 -19 -30 -4 0 -15 32 -26 70 -11
39 -24 70 -30 70 -6 0 -27 -28 -47 -62z"/>
<path d="M2928 3304 c-45 -24 -51 -47 -26 -98 l21 -45 31 16 c40 20 38 17 30
37 -3 9 -15 16 -25 16 -22 0 -24 11 -7 28 18 18 42 15 62 -7 28 -30 17 -64
-24 -77 -23 -8 -36 -19 -38 -33 -3 -18 2 -21 33 -21 48 0 95 44 95 90 0 85
-80 134 -152 94z"/>
<path d="M1858 3170 c-35 -88 -36 -90 -16 -101 11 -6 22 -9 24 -6 3 3 21 44
40 93 26 67 31 90 22 96 -26 16 -35 6 -70 -82z"/>
<path d="M2793 3242 c-9 -6 -6 -24 12 -72 44 -122 42 -119 64 -113 28 7 27 17
-11 112 -30 79 -40 89 -65 73z"/>
<path d="M1974 3190 c5 -32 2 -46 -15 -69 -29 -40 -22 -72 21 -93 19 -10 50
-19 69 -20 l34 -3 24 88 c14 49 23 90 21 92 -2 1 -13 6 -25 9 -19 6 -23 2 -29
-28 -9 -48 -28 -45 -44 7 -12 43 -24 57 -49 57 -10 0 -12 -10 -7 -40z m74
-118 c3 -10 -4 -13 -24 -10 -15 2 -29 9 -32 16 -3 10 4 13 24 10 15 -2 29 -9
32 -16z"/>
<path d="M2702 3211 c-11 -6 -11 -17 -2 -51 6 -23 10 -44 7 -46 -2 -2 -28 12
-58 31 -56 36 -95 46 -86 22 3 -8 13 -50 23 -95 17 -73 21 -82 41 -82 26 0 29
15 13 69 -5 19 -8 36 -6 38 1 2 31 -15 65 -37 71 -46 85 -49 78 -17 -3 12 -13
57 -22 100 -16 75 -25 86 -53 68z"/>
<path d="M2177 3174 c-4 -4 -7 -16 -7 -26 0 -14 8 -18 38 -18 40 0 71 -14 59
-27 -5 -4 -24 -6 -43 -4 -31 2 -34 0 -34 -23 0 -23 4 -26 35 -26 26 0 35 -4
35 -16 0 -14 -8 -16 -50 -10 -48 6 -50 6 -50 -17 0 -20 6 -25 38 -31 20 -3 53
-6 73 -6 l36 0 9 96 c6 65 6 97 -1 99 -27 8 -132 15 -138 9z"/>
<path d="M2377 3163 c-4 -3 -7 -15 -7 -25 0 -15 8 -18 50 -18 38 0 50 -4 50
-15 0 -10 -11 -15 -35 -15 -31 0 -35 -3 -35 -25 0 -22 4 -25 34 -25 19 0 38
-4 41 -10 4 -6 -6 -10 -22 -10 -52 0 -74 -11 -71 -34 3 -19 8 -21 73 -18 39 2
72 6 74 8 2 1 0 46 -4 99 l-7 95 -67 0 c-37 0 -71 -3 -74 -7z"/>
<path d="M5655 5775 c-5 -2 -40 -6 -77 -10 -64 -6 -68 -8 -68 -31 0 -22 4 -25
33 -22 l32 3 8 -72 c8 -68 10 -73 33 -73 24 0 24 0 18 80 l-7 80 26 0 c30 0
40 11 31 34 -6 16 -10 17 -29 11z"/>
<path d="M5746 5728 c-3 -29 -6 -74 -6 -100 l0 -48 65 0 c36 0 68 0 73 0 4 -1
8 8 10 20 3 18 -2 20 -47 20 -45 0 -51 3 -51 20 0 18 5 20 38 18 32 -3 37 0
40 20 3 20 -1 22 -37 22 -30 0 -41 4 -41 15 0 12 13 15 55 15 47 0 55 3 55 19
0 14 -10 20 -46 25 -98 13 -100 12 -108 -46z"/>
<path d="M5970 5758 c0 -2 -9 -43 -19 -93 -13 -65 -15 -92 -7 -97 23 -15 35
-7 42 28 9 47 34 42 48 -11 10 -33 16 -41 40 -43 24 -3 28 -1 22 15 -17 42
-18 70 -3 76 8 3 17 17 21 32 10 38 -15 72 -61 84 -35 10 -83 15 -83 9z m76
-58 c17 -7 24 -14 18 -20 -13 -13 -54 -1 -54 16 0 17 1 17 36 4z"/>
<path d="M6184 5674 c-9 -22 -24 -59 -35 -83 -23 -53 -24 -71 -4 -71 8 0 18 0
22 -1 4 0 14 19 23 42 l17 43 12 -37 12 -37 35 15 34 14 -15 -37 c-18 -41 -14
-62 12 -62 13 0 27 24 52 86 18 47 31 88 27 91 -3 3 -29 -4 -57 -16 -28 -11
-55 -21 -59 -21 -4 0 -13 20 -20 45 -19 67 -36 76 -56 29z"/>
<path d="M6432 5572 c-10 -15 -34 -53 -52 -86 -26 -47 -30 -60 -19 -67 23 -15
33 -10 53 24 80 140 77 132 56 145 -16 10 -22 8 -38 -16z"/>
<path d="M6491 5463 c-45 -58 -57 -80 -49 -90 16 -20 32 -16 56 17 30 40 42
38 43 -7 2 -54 12 -96 25 -100 11 -4 132 144 123 150 -2 1 -11 8 -20 15 -14
11 -21 7 -47 -28 -34 -47 -36 -45 -47 52 -3 32 -10 60 -15 63 -5 3 -36 -29
-69 -72z"/>
<path d="M6690 5287 c-47 -17 -87 -32 -89 -34 -10 -7 32 -41 45 -36 17 6 65
-47 59 -66 -5 -14 11 -41 25 -41 4 0 28 39 53 88 34 66 43 92 36 105 -13 23
-29 21 -129 -16z m58 -49 c-6 -18 -28 -21 -28 -4 0 9 7 16 16 16 9 0 14 -5 12
-12z"/>
<path d="M4644 5222 c-44 -35 -55 -82 -30 -131 35 -67 143 -65 174 4 19 42 14
62 -24 92 l-36 27 -24 -29 c-21 -27 -22 -31 -9 -41 9 -7 25 -10 35 -7 24 6 26
-10 4 -31 -30 -31 -84 -9 -84 34 0 11 11 30 25 43 17 15 24 29 19 40 -8 21
-23 21 -50 -1z"/>
<path d="M6832 5124 l-84 -55 17 -26 c10 -14 26 -41 37 -60 22 -36 25 -38 48
-23 13 8 12 15 -7 49 -13 22 -23 42 -23 45 0 3 27 21 60 42 33 20 60 40 60 44
0 3 -6 13 -12 22 -12 14 -22 10 -96 -38z"/>
<path d="M5060 5055 c0 -31 6 -39 50 -67 l50 -33 0 -560 0 -560 -55 -43 c-30
-24 -55 -47 -55 -52 0 -5 10 -16 22 -24 33 -23 393 -23 426 0 12 8 22 19 22
24 0 5 -27 28 -60 52 l-60 42 1 475 0 476 20 -60 c10 -33 76 -244 145 -470 69
-225 136 -441 148 -480 l23 -70 89 -3 90 -3 16 53 c9 29 44 148 78 263 34 116
70 237 80 270 10 33 39 132 65 220 25 88 56 189 68 225 l22 65 3 -475 2 -474
-52 -54 -53 -53 24 -20 c21 -17 40 -19 200 -19 144 0 181 3 199 16 12 8 22 19
22 24 0 5 -25 28 -55 52 l-55 43 0 557 0 558 50 36 c43 31 50 40 50 70 l0 34
-242 -2 -242 -3 -33 -115 c-19 -63 -49 -167 -68 -230 -18 -63 -61 -212 -95
-330 -34 -118 -66 -221 -70 -229 -8 -16 -24 28 -95 274 -26 88 -62 210 -80
270 -18 61 -50 167 -71 238 l-38 127 -243 0 -243 0 0 -35z"/>
<path d="M4517 5043 c-17 -16 -4 -34 39 -56 l45 -23 -72 -25 c-40 -14 -74 -30
-76 -36 -2 -5 36 -28 84 -51 79 -37 89 -39 100 -25 14 18 1 43 -22 43 -7 0
-23 9 -36 20 -19 15 -21 19 -7 20 29 0 128 42 128 54 0 6 -36 28 -80 49 -84
39 -92 41 -103 30z"/>
<path d="M6985 4844 c-44 -14 -83 -29 -87 -33 -4 -3 3 -35 16 -71 19 -52 28
-64 43 -62 25 5 25 4 8 52 -12 35 -13 45 -3 52 9 5 17 -3 27 -28 21 -51 47
-42 43 15 -3 55 16 51 36 -7 14 -42 38 -55 48 -27 7 17 -28 128 -42 131 -5 2
-45 -8 -89 -22z"/>
<path d="M4423 4812 c-3 -9 -8 -20 -10 -24 -4 -8 177 -69 188 -62 5 3 9 14 9
24 0 14 -20 25 -91 49 -82 27 -91 28 -96 13z"/>
<path d="M4400 4695 c-12 -14 -40 -98 -40 -119 0 -10 143 -46 183 -46 8 0 17
9 20 20 4 16 -1 21 -21 26 -15 3 -33 8 -40 10 -24 7 -6 29 33 40 25 7 41 18
47 34 11 31 4 35 -39 22 -31 -10 -39 -8 -61 8 -29 24 -65 26 -82 5z m50 -59
c0 -24 -16 -43 -27 -32 -8 8 6 56 17 56 6 0 10 -11 10 -24z"/>
<path d="M7060 4644 c-8 -1 -36 -6 -62 -9 -43 -6 -48 -9 -48 -32 0 -25 1 -25
56 -18 l56 7 -46 -59 c-41 -52 -56 -83 -40 -83 10 0 149 21 172 26 13 2 22 12
22 23 0 27 -6 29 -57 20 -25 -5 -48 -8 -50 -6 -1 2 17 30 42 63 24 32 45 62
45 67 0 7 -59 8 -90 1z"/>
<path d="M7017 4399 c-21 -12 -47 -61 -47 -88 0 -11 5 -32 12 -46 10 -22 17
-25 60 -25 l48 0 0 35 c0 28 -4 35 -20 35 -11 0 -20 -4 -20 -10 0 -5 -7 -10
-15 -10 -17 0 -20 23 -5 51 13 23 62 26 80 4 8 -9 10 -28 6 -49 -5 -24 -2 -37
9 -46 22 -19 36 -1 42 54 5 40 2 48 -25 76 -24 23 -39 30 -69 30 -21 0 -46 -5
-56 -11z"/>
<path d="M6954 4178 c-3 -11 -3 -22 0 -25 3 -3 47 -12 97 -20 76 -12 93 -13
100 -1 16 25 2 33 -94 49 -94 15 -97 15 -103 -3z"/>
<path d="M6947 4094 c-20 -20 -4 -41 40 -55 l47 -15 -64 -35 c-35 -19 -65 -40
-67 -46 -4 -11 136 -63 168 -63 18 0 33 26 24 41 -3 4 -21 11 -40 15 -20 3
-38 10 -40 15 -3 4 21 22 54 38 33 17 62 35 66 40 8 13 -18 26 -92 45 -34 9
-68 19 -76 22 -7 2 -16 1 -20 -2z"/>
<path d="M6844 3823 c-29 -52 -34 -67 -23 -74 25 -16 36 -10 54 31 10 22 22
40 26 40 17 0 19 -21 5 -48 -8 -16 -12 -32 -9 -36 15 -14 44 -4 53 18 11 29
26 40 35 26 3 -5 -4 -28 -17 -51 -19 -34 -20 -41 -8 -49 8 -6 19 -8 25 -7 10
4 64 105 65 122 0 6 -38 29 -84 52 l-85 42 -37 -66z"/>
<path d="M6773 3697 c-39 -44 -65 -88 -59 -102 7 -20 33 -19 45 3 22 37 40 54
51 47 7 -4 4 -17 -10 -40 -18 -30 -19 -34 -4 -46 14 -12 19 -10 38 14 12 15
27 27 34 27 17 0 15 -5 -14 -50 -26 -38 -25 -60 0 -60 8 0 32 25 55 55 l41 54
-32 25 c-18 14 -54 41 -80 60 l-46 34 -19 -21z"/>
<path d="M4684 3596 c-3 -8 2 -26 11 -39 27 -41 0 -41 -34 0 -28 34 -32 36
-47 21 -15 -15 -13 -20 26 -72 l42 -55 80 60 c69 53 77 63 66 77 -7 10 -13 19
-14 20 -2 2 -17 -7 -34 -20 l-32 -23 -15 23 c-17 25 -41 29 -49 8z"/>
<path d="M6650 3545 c-11 -13 -8 -21 15 -45 23 -24 25 -30 12 -35 -8 -4 -32
-2 -53 4 -34 9 -41 8 -58 -9 -19 -19 -19 -19 27 -30 38 -10 46 -16 49 -38 2
-14 15 -34 30 -45 26 -20 26 -20 60 1 18 11 44 32 58 47 l24 26 -69 69 c-38
39 -72 70 -76 70 -4 0 -12 -7 -19 -15z m75 -145 c-20 -22 -35 -26 -35 -8 0 20
33 49 44 38 6 -6 3 -16 -9 -30z"/>
<path d="M4841 3497 c-13 -6 -42 -34 -65 -60 -40 -48 -40 -49 -21 -63 19 -14
23 -12 59 30 42 51 78 60 96 26 9 -17 4 -27 -36 -70 -44 -48 -46 -52 -31 -68
16 -15 20 -13 66 32 27 27 52 59 55 72 9 35 -20 83 -59 100 -41 17 -35 17 -64
1z"/>
<path d="M6502 3407 c-8 -10 4 -32 49 -91 58 -73 62 -76 79 -61 18 16 16 20
-38 91 -58 75 -71 84 -90 61z"/>
<path d="M4980 3313 c-28 -43 -50 -81 -50 -85 0 -4 9 -12 20 -18 17 -9 23 -4
47 37 l28 48 11 -50 c7 -27 13 -60 13 -71 1 -12 7 -27 15 -33 11 -9 24 4 66
70 47 76 50 83 35 98 -18 17 -26 11 -66 -50 -16 -24 -17 -24 -28 36 -17 83
-21 95 -32 95 -5 0 -32 -35 -59 -77z"/>
<path d="M6424 3345 c-3 -8 4 -31 16 -50 12 -20 20 -38 18 -40 -2 -3 -35 4
-73 15 -38 11 -73 16 -77 12 -9 -9 83 -172 98 -172 5 0 15 5 22 12 9 9 6 22
-14 55 -28 48 -24 50 50 28 27 -8 58 -15 69 -15 24 0 20 12 -35 103 -39 65
-63 82 -74 52z"/>
<path d="M5210 3171 c0 -103 1 -109 22 -114 17 -5 36 9 94 71 66 71 71 78 52
86 -13 7 -26 6 -36 -1 -20 -12 -82 13 -82 34 0 11 -29 33 -44 33 -3 0 -6 -49
-6 -109z m69 -18 c-7 -10 -15 -20 -16 -22 -2 -2 -3 5 -3 17 0 14 6 22 16 22
14 0 15 -3 3 -17z"/>
<path d="M6141 3204 l-30 -25 16 -42 c21 -53 17 -50 52 -42 37 8 42 38 10 56
-28 14 -11 32 27 27 21 -2 31 -11 39 -32 8 -24 6 -31 -14 -47 -13 -10 -33 -19
-46 -19 -27 0 -42 -38 -19 -47 50 -19 134 40 134 93 0 33 -25 81 -49 94 -35
18 -87 12 -120 -16z"/>
<path d="M5425 3178 c-2 -7 -9 -40 -15 -73 -6 -33 -13 -70 -16 -82 -6 -32 10
-29 66 11 l47 34 29 -51 c16 -28 34 -52 40 -54 11 -4 53 182 43 191 -2 2 -13
6 -23 8 -16 2 -22 -5 -29 -42 -8 -41 -10 -43 -23 -26 -7 10 -15 24 -17 30 -2
7 -14 4 -31 -8 -34 -22 -38 -18 -26 24 5 18 7 37 4 41 -8 14 -44 11 -49 -3z"/>
<path d="M5779 3150 c-5 -4 -1 -14 11 -25 13 -12 18 -25 14 -40 -6 -25 24 -45
36 -24 5 8 9 8 14 0 4 -6 0 -21 -8 -34 -14 -21 -14 -25 0 -45 19 -27 64 -29
87 -4 19 21 22 48 7 57 -6 4 -1 18 11 34 19 26 20 32 7 57 -13 28 -16 29 -91
29 -43 1 -82 -2 -88 -5z m134 -36 c3 -3 3 -12 0 -20 -4 -11 -9 -12 -19 -3 -8
6 -14 15 -14 20 0 10 24 12 33 3z m-13 -104 c0 -5 -5 -10 -11 -10 -5 0 -7 5
-4 10 3 6 8 10 11 10 2 0 4 -4 4 -10z"/>
<path d="M3960 4842 c-45 -22 -80 -75 -80 -120 0 -47 32 -112 83 -167 l42 -45
46 35 c64 49 101 105 106 163 10 112 -96 185 -197 134z"/>
<path d="M3887 4324 c-26 -20 -59 -56 -73 -80 -23 -38 -26 -54 -22 -107 7
-107 70 -165 194 -175 74 -6 188 25 231 62 l27 24 -88 98 c-144 160 -197 214
-209 214 -7 0 -33 -17 -60 -36z"/>
<path d="M3512 2788 c-28 -18 -52 -36 -52 -40 0 -17 46 -78 62 -84 20 -6 98
51 98 72 0 22 -33 84 -44 84 -6 0 -35 -15 -64 -32z m68 -39 c0 -6 -4 -7 -10
-4 -5 3 -10 11 -10 16 0 6 5 7 10 4 6 -3 10 -11 10 -16z m-46 -25 c9 -22 -3
-32 -14 -14 -12 19 -12 30 -1 30 5 0 12 -7 15 -16z"/>
<path d="M4535 2810 c-9 -14 8 -39 55 -85 31 -30 43 -37 49 -26 5 7 6 21 4 32
-3 11 5 28 23 44 23 22 26 28 14 35 -20 13 -137 13 -145 0z"/>
<path d="M4487 2720 c-35 -27 -41 -53 -23 -89 28 -54 105 -50 127 6 16 43 -7
54 -36 18 -19 -25 -27 -28 -41 -19 -26 16 -28 31 -5 51 40 34 19 65 -22 33z"/>
<path d="M3592 2673 l-53 -48 34 -39 c24 -28 39 -38 51 -33 16 6 16 9 -3 36
-27 37 -27 49 -1 26 16 -14 23 -16 32 -7 9 9 7 16 -7 32 -24 26 -8 26 21 -1
23 -21 44 -19 44 5 0 6 -15 26 -33 44 l-33 32 -52 -47z"/>
<path d="M3677 2578 c-27 -41 -33 -56 -24 -67 9 -11 14 -9 28 8 24 29 27 27
31 -16 2 -27 8 -39 21 -41 13 -3 17 3 17 26 0 21 6 31 20 35 24 6 24 6 5 -40
-12 -29 -13 -38 -3 -45 19 -12 28 -10 28 7 0 24 17 17 24 -9 6 -23 33 -42 44
-31 3 3 0 22 -7 42 -13 34 -12 38 8 54 12 10 27 20 34 22 24 10 -15 26 -40 16
-20 -7 -23 -6 -21 9 2 11 -3 17 -16 17 -10 0 -34 15 -53 33 -19 17 -40 32 -48
32 -7 0 -29 -24 -48 -52z m78 -8 c3 -5 -1 -10 -9 -10 -9 0 -16 5 -16 10 0 6 4
10 9 10 6 0 13 -4 16 -10z"/>
<path d="M4322 2578 c-7 -7 -12 -18 -12 -26 0 -9 -7 -11 -21 -7 -11 4 -49 -1
-85 -11 -48 -13 -64 -21 -64 -35 0 -33 23 -119 32 -119 29 0 98 24 98 35 0 20
-10 24 -41 15 -16 -5 -31 -5 -34 0 -3 5 6 12 20 16 37 9 32 34 -7 35 l-33 1
33 10 c17 6 32 17 32 25 0 24 59 -14 81 -52 13 -21 26 -32 35 -28 17 6 17 6 0
48 -8 18 -13 35 -12 37 2 2 6 18 9 36 7 34 -8 43 -31 20z"/>
<path d="M3916 2509 c-19 -84 -23 -110 -16 -114 5 -3 29 -8 54 -11 38 -6 46
-4 46 9 0 9 -12 18 -30 22 -38 8 -39 24 -2 22 33 -2 38 26 5 31 -38 6 -26 18
17 17 l40 0 0 -58 0 -58 52 3 c41 2 54 7 56 21 3 14 -4 17 -32 17 l-36 0 0 49
0 48 -42 7 c-24 4 -57 9 -75 12 -28 5 -33 3 -37 -17z"/>
<path d="M4424 2515 c-6 -16 9 -34 29 -35 13 0 8 27 -8 40 -12 10 -16 9 -21
-5z"/>
</g>
</svg>
